<?xml version="1.0" encoding="utf-8"?>
<!-- Generator: Adobe Illustrator 24.0.1, SVG Export Plug-In . SVG Version: 6.00 Build 0)  -->
<svg version="1.1" id="Calque_1" xmlns="http://www.w3.org/2000/svg" xmlns:xlink="http://www.w3.org/1999/xlink" x="0px" y="0px"
	 width="1379px" height="90px" viewBox="0 0 1379 90" style="enable-background:new 0 0 1379 90;" xml:space="preserve">
<style type="text/css">
	.st0{fill:#FF0000;}
</style>
<path d="M94,0h11.2v90H94V48.7H11.5V90H0.2V0h11.2v39.4H94V0z M125.3,90V0h90v9.4h-78.8v30h75v9.4h-75v31.9h78.8v9.4h-90V90z
	 M316.1,69.4h-71.3L233.6,90h-13.1L273,0h15l52.5,90h-13.1L316.1,69.4z M310.5,60l-30-52.5l-30,52.5H310.5z M456.2,90H445V73.1
	c0-2.7-0.1-5.1-0.2-7c-0.1-2-0.4-3.7-1-5.1c-0.5-1.4-1.4-2.5-2.6-3.4s-2.9-1.5-5.2-2c-2.2-0.5-5.1-0.8-8.5-0.9
	c-3.4-0.2-7.6-0.3-12.6-0.3h-50.6V90H353V0h63.7c6.9,0,12.7,0.3,17.3,0.8c4.7,0.5,8.6,1.2,11.7,2.2s5.5,2.2,7.1,3.6
	c1.7,1.4,2.9,3.1,3.6,5.1c0.8,2,1.2,4.1,1.3,6.6c0.2,2.4,0.2,5.1,0.2,8c0,3.8-0.3,7.1-0.8,9.9s-1.4,5.2-2.6,7.2s-2.9,3.6-5,4.8
	c-2.1,1.2-4.7,2-7.8,2.5c3.1,0.5,5.6,1.3,7.5,2.5s3.3,2.7,4.3,4.6s1.7,4.1,2,6.7c0.4,2.6,0.5,5.5,0.5,8.8V90H456.2z M364.3,45h52.4
	c5,0,9.2-0.1,12.6-0.2c3.4-0.2,6.3-0.5,8.5-1s3.9-1.1,5.2-2c1.2-0.9,2.1-2,2.6-3.4c0.6-1.4,0.9-3.1,1-5c0.1-2,0.2-4.4,0.2-7.1
	c0-2.5-0.1-4.7-0.2-6.6c-0.1-1.8-0.4-3.4-1-4.6c-0.5-1.2-1.4-2.2-2.6-3c-1.2-0.7-2.9-1.3-5.2-1.7c-2.2-0.4-5.1-0.7-8.5-0.8
	s-7.6-0.2-12.6-0.2h-52.4V45z M589.5,80.6c5,0,9.2-0.1,12.6-0.4c3.4-0.3,6.3-0.8,8.5-1.6c2.2-0.9,3.9-2.1,5.2-3.7
	c1.2-1.6,2.1-3.7,2.6-6.3c0.6-2.7,0.9-5.9,1-9.7c0.1-3.9,0.2-8.5,0.2-13.8s-0.1-9.9-0.2-13.8c-0.1-3.9-0.4-7.1-1-9.7
	c-0.5-2.7-1.4-4.8-2.6-6.4s-2.9-2.8-5.2-3.6c-2.2-0.9-5.1-1.4-8.5-1.7s-7.6-0.4-12.6-0.4h-56.2v71.2L589.5,80.6L589.5,80.6z
	 M522.1,90V0h67.4c6.9,0,12.7,0.4,17.3,1.2c4.7,0.8,8.6,2,11.7,3.6c3.1,1.6,5.5,3.7,7.1,6.2c1.7,2.5,2.9,5.4,3.6,8.7
	c0.8,3.3,1.2,7.1,1.3,11.3c0.2,4.2,0.2,8.8,0.2,13.9s-0.1,9.8-0.2,14c-0.1,4.2-0.6,7.9-1.3,11.3c-0.7,3.3-2,6.2-3.6,8.7
	s-4,4.5-7.1,6.2c-3,1.6-6.9,2.9-11.7,3.7c-4.7,0.8-10.5,1.2-17.3,1.2H522.1z M647.2,0h11.2v90h-11.2V0z M678.5,0h67.6
	c5.6,0,10.3,0.3,14.1,0.8c3.9,0.5,7.1,1.2,9.6,2.2s4.4,2.2,5.7,3.6c1.4,1.4,2.4,3.1,3,5.1s1,4.1,1.1,6.6c0.1,2.4,0.2,5.1,0.2,8
	c0,3-0.1,5.9-0.2,8.4c-0.1,2.6-0.6,4.9-1.3,7s-2,3.9-3.6,5.5s-4,2.9-7.1,3.9c-3,1.1-6.9,1.9-11.7,2.4c-4.7,0.5-10.5,0.8-17.3,0.8
	h-48.7V90h-11.2V0H678.5z M689.8,45h48.7c5,0,9.2-0.1,12.6-0.2c3.4-0.2,6.3-0.5,8.5-1s3.9-1.1,5.2-2c1.2-0.9,2.1-2,2.6-3.4
	c0.6-1.4,0.9-3.1,1-5c0.1-2,0.2-4.4,0.2-7.1c0-2.5-0.1-4.7-0.2-6.6c-0.1-1.8-0.4-3.4-1-4.6c-0.5-1.2-1.4-2.2-2.6-3
	c-1.2-0.7-2.9-1.3-5.2-1.7c-2.2-0.4-5.1-0.7-8.5-0.8s-7.6-0.2-12.6-0.2h-48.7V45z M792.4,90V0h11.2v80.6h71.2V90H792.4z M958.8-1.9
	c6.9,0,12.7,0.4,17.3,1.3c4.7,0.8,8.6,2.1,11.7,3.8c3,1.7,5.4,3.8,7,6.4c1.6,2.6,2.8,5.6,3.6,9.1s1.2,7.4,1.3,11.8
	c0.2,4.4,0.2,9.2,0.2,14.5s-0.1,10.2-0.2,14.5c-0.1,4.4-0.6,8.3-1.3,11.8s-1.9,6.5-3.6,9.1c-1.6,2.6-4,4.7-7,6.4s-6.9,2.9-11.7,3.8
	c-4.7,0.9-10.5,1.3-17.3,1.3h-33.9c-6.9,0-12.7-0.4-17.4-1.3c-4.7-0.8-8.6-2.1-11.6-3.8s-5.4-3.9-7.1-6.4c-1.6-2.6-2.9-5.6-3.6-9.1
	c-0.7-3.5-1.2-7.4-1.3-11.8s-0.2-9.2-0.2-14.5s0.1-10.2,0.2-14.5s0.5-8.3,1.3-11.8s2-6.5,3.6-9.1c1.7-2.6,4-4.7,7.1-6.4
	c3-1.7,6.9-3,11.6-3.8c4.7-0.9,10.5-1.3,17.4-1.3H958.8z M958.8,82.5c5,0,9.1-0.1,12.5-0.4s6.3-0.9,8.5-1.8s3.9-2.2,5.2-3.9
	c1.2-1.7,2.1-3.9,2.6-6.7c0.5-2.8,0.9-6.2,0.9-10.2c0.1-4.1,0.2-8.9,0.2-14.5s-0.1-10.4-0.2-14.5c-0.1-4.1-0.4-7.5-0.9-10.3
	c-0.5-2.8-1.4-5-2.6-6.7c-1.2-1.7-2.9-3-5.2-3.9c-2.2-0.9-5-1.5-8.4-1.8c-3.4-0.3-7.6-0.5-12.6-0.5h-33.9c-5,0-9.2,0.2-12.7,0.5
	c-3.4,0.3-6.2,0.9-8.4,1.8c-2.2,0.9-3.9,2.2-5.2,3.9c-1.2,1.7-2.1,3.9-2.6,6.7c-0.5,2.8-0.9,6.2-0.9,10.3c-0.1,4-0.1,8.8-0.1,14.5
	s0,10.5,0.1,14.5s0.4,7.4,1,10.2c0.5,2.8,1.4,5,2.6,6.7c1.2,1.7,2.9,3,5.2,3.9c2.2,0.9,5,1.5,8.4,1.8s7.7,0.4,12.7,0.4H958.8z
	 M1027.6,7.5V90h-11.2V0h18.8l52.4,78.8L1140,0h17.9v90h-11.2V8.7L1093.3,90h-11.4L1027.6,7.5z M1178,90V0h90v9.4h-78.8v30h75v9.4
	h-75v31.9h78.8v9.4h-90V90z M1337.3,39.4c6.2,0,11.5,0.3,15.9,0.8s8.1,1.3,11.1,2.3c3.1,1,5.5,2.2,7.3,3.7s3.2,3.2,4.2,5.1
	s1.6,4,1.9,6.3s0.5,4.9,0.5,7.6s-0.2,5.3-0.8,7.7c-0.5,2.4-1.3,4.6-2.6,6.6c-1.2,2-3,3.8-5.1,5.3c-2.2,1.6-4.9,2.9-8.2,4
	c-3.3,1.1-7.3,1.9-12,2.5c-4.6,0.6-10.1,0.9-16.3,0.9h-15c-5.6,0-10.5-0.2-14.8-0.6c-4.2-0.4-7.8-1.1-10.9-1.9c-3-0.9-5.6-2-7.6-3.3
	c-2-1.4-3.6-2.9-4.8-4.7c-1.2-1.8-2-3.9-2.5-6.2c-0.5-2.3-0.7-4.9-0.7-7.7h11.2c0,3.5,0.5,6.3,1.5,8.3s2.7,3.5,5,4.5
	s5.4,1.6,9.2,1.9c3.8,0.2,8.6,0.4,14.2,0.4h15c6.6,0,12-0.3,16.3-0.9s7.8-1.6,10.4-3s4.4-3.1,5.5-5.3c1.1-2.2,1.6-4.9,1.6-8.1
	s-0.4-5.8-1.1-7.9s-2.1-3.8-4.3-5c-2.1-1.2-5.1-2.1-9-2.6s-8.9-0.8-15.2-0.8h-15.5c-6.9,0-12.8-0.3-17.7-0.8
	c-4.9-0.5-9-1.2-12.3-2.2s-6-2.2-8-3.6s-3.5-3.1-4.6-4.9c-1-1.8-1.7-3.9-2-6.1c-0.3-2.3-0.5-4.7-0.5-7.3c0-2.7,0.2-5.3,0.7-7.6
	c0.5-2.3,1.4-4.5,2.8-6.3c1.3-1.9,3.1-3.6,5.5-5.1c2.3-1.5,5.2-2.7,8.8-3.7c3.6-1,8-1.8,13.1-2.3s11.1-0.8,17.9-0.8h11.2
	c5.6,0,10.6,0.2,14.8,0.6c4.2,0.4,7.8,1,10.9,1.9c3,0.9,5.6,2,7.6,3.3s3.6,2.9,4.8,4.7c1.2,1.8,2,3.8,2.5,6.2
	c0.5,2.3,0.7,4.9,0.7,7.7h-11.2c0-3.5-0.5-6.3-1.5-8.3s-2.7-3.5-5-4.5s-5.4-1.6-9.3-1.9c-3.8-0.3-8.6-0.4-14.2-0.4h-11.2
	c-7.5,0-13.7,0.3-18.5,0.8s-8.7,1.4-11.5,2.6c-2.8,1.2-4.8,2.9-5.9,5s-1.6,4.7-1.6,7.9c0,2,0.1,3.7,0.4,5.2s0.8,2.9,1.6,4
	c0.9,1.1,2,2.1,3.6,2.9c1.5,0.8,3.5,1.4,6,1.9s5.5,0.9,9.1,1.1s7.9,0.3,12.9,0.3h15.7V39.4z"/>
<path id="accent" class="st0" d="M1243.6-33.8l-7.5-11.2l-33.8,28.1l3.8,5.6L1243.6-33.8z"/>
</svg>
